PathFileType	4	(X/Y/Z)	C:/Users/beibeiliu/ov580/test_trc/capture2\sequence.26_training_dense_right.trc
DataRate	CameraRate	NumFrames	NumMarkers	Units	OrigDataRate	OrigDataStartFrame	OrigNumFrames
120	120	24	19	mm	120	288	383
Frame#	Time	ThumbCMC			ThumbMCP			ThumbIP			ThumbTip			IndexMCP			IndexPIP			IndexTip			MiddleMCP			MiddlePIP			MiddleTip			RingMCP			RingPIP			RingTip			PinkyMCP			PinkyPIP			PinkyTip			BackHand1			BackHand2			BackHand3	
		X0	Y0	Z0	X1	Y1	Z1	X2	Y2	Z2	X3	Y3	Z3	X4	Y4	Z4	X5	Y5	Z5	X6	Y6	Z6	X7	Y7	Z7	X8	Y8	Z8	X9	Y9	Z9	X10	Y10	Z10	X11	Y11	Z11	X12	Y12	Z12	X13	Y13	Z13	X14	Y14	Z14	X15	Y15	Z15	X16	Y16	Z16	X17	Y17	Z17	X18	Y18	Z18	
287	2.39167	88.6432	36.3811	76.289	74.7082	50.3702	51.4405	72.5464	65.6399	29.0446	81.1351	69.9005	4.97222	107.069	79.3898	17.6127	101.172	91.7863	-3.6729	105.238	101.62	-29.1961	119.71	73.0549	6.8491	117.245	83.2445	-16.2419	112.281	101.517	-43.2043	131.526	54.0528	-3.62967	123.542	68.2572	-26.8429	114.798	77.0981	-53.3676	138.429	34.6951	-3.16847	129.808	46.9808	-27.0621	117.902	54.651	-42.854	144.963	28.5095	42.0548	144.477	14.2485	63.8543	121.828	44.357	69.7109	
288	2.4	86.1394	34.3548	79.4229	69.9669	50.7784	53.5147	68.1122	62.539	27.5573	72.7817	67.8353	2.93749	98.1439	76.9358	15.478	91.3014	86.3769	-5.33357	87.7694	96.3144	-31.3377	110.495	72.6431	1.16414	103.382	80.7784	-20.9179	94.4244	95.3777	-41.5194	117.796	53.3218	-2.54248	106.679	61.1826	-28.4842	85.0159	66.3172	-49.6766	127.247	34.2524	-7.1257	115.846	39.1827	-28.5173	85.0637	41.3192	-41.0572	139.372	29.0897	42.3281	141.711	18.6057	64.5075	122.464	40.7257	67.5409	
289	2.40833	86.4346	34.4871	77.1997	66.1283	46.2884	55.2508	59.2401	57.9678	29.8717	67.9958	58.1834	5.40638	89.0014	77.147	16.3035	80.8675	82.3186	-7.95143	73.7304	90.9831	-28.6221	100.799	70.8727	2.45571	93.3902	75.8682	-20.7724	82.0096	87.5566	-46.2112	107.571	51.6866	-9.37566	91.4861	53.024	-32.8717	66.8434	46.0615	-47.5015	117.931	32.3959	-12.016	96.1628	33.4519	-27.2237	71.577	22.8404	-31.3072	136.568	27.5214	36.6784	143.283	15.0891	61.1465	120.579	45.6157	65.619	
290	2.41667	84.1445	33.3791	76.8959	63.312	42.3677	51.5103	58.9133	51.6613	24.6022	65.2007	52.7272	-0.594335	80.6553	75.8862	12.0258	71.9384	79.3592	-12.3572	65.4692	82.5555	-31.7118	94.1375	67.85	-3.52356	82.5383	74.3318	-24.8246	68.5588	81.6459	-50.1463	101.051	47.8932	-9.5752	79.5487	42.1765	-32.1202	52.321	28.3745	-35.7799	114.2	25.6431	-12.1231	85.1695	23.5095	-24.3664	61.8837	3.35444	-14.8094	133.987	30.2591	32.3927	141.879	18.2453	57.5207	117.436	46.1504	61.9199	
291	2.425	83.3629	29.6824	71.9159	58.449	37.0606	50.7984	56.0238	42.4837	24.959	61.0362	43.8033	-3.01191	75.0786	68.8178	10.4141	63.752	71.0755	-11.3664	51.7952	75.2385	-35.6621	89.7642	61.1983	-3.76669	74.1244	67.2568	-26.0865	58.8781	73.034	-49.428	93.1345	43.4851	-15.0128	73.2695	33.1652	-29.6192	48.2926	10.838	-19.219	107.502	21.3452	-14.1033	79.6571	9.46022	-21.9778	64.7841	-7.62614	1.3949	130.31	33.2966	30.7937	136.729	21.2788	54.7776	116.447	43.5645	62.1069	
292	2.43333	80.8736	24.924	72.8172	55.6402	28.2018	52.4478	50.0083	35.3905	19.8002	58.4907	34.5977	-5.13552	69.9082	62.0301	10.1451	56.7791	63.9443	-12.4143	44.9297	65.3586	-35.5628	82.0429	57.2587	-7.28093	69.083	59.6084	-26.3077	53.6798	61.6213	-54.8467	90.6687	34.8715	-17.0943	64.7557	16.2752	-24.1699	56.2552	-5.44943	-6.7306	104.213	18.4247	-12.9771	77.1682	-1.05512	-15.6986	70.6156	-10.5445	13.9116	127.479	34.4256	25.7277	140.348	20.7202	54.7773	111.37	43.7013	58.9721	
293	2.44167	77.6658	23.2294	69.5132	58.9378	21.0392	48.4147	51.0467	24.9274	22.0166	55.43	25.899	-5.66988	66.8326	55.1845	6.63275	50.9964	55.9546	-17.7457	41.6039	56.0668	-36.7354	80.3367	50.7121	-8.90824	61.1667	53.3033	-31.6135	48.113	53.5389	-54.37	85.952	26.3181	-15.4286	65.7631	1.15694	-18.8554	63.7533	-14.2072	8.93673	98.4307	12.1485	-14.2937	79.484	-8.0351	-10.3081	79.7975	-14.0256	18.4777	123.865	31.7445	28.6687	139.837	21.5806	55.0436	106.781	41.2619	60.1062	
294	2.45	78.9824	16.2229	69.0795	55.5701	14.1263	46.949	49.9092	15.5457	21.3753	58.8251	16.0417	-7.13882	64.4064	47.3758	3.10802	47.29	48.5701	-20.2875	37.9401	47.0542	-39.5199	77.4865	44.0949	-11.8333	60.6625	42.0473	-35.5331	46.4825	43.0691	-58.5693	85.7225	20.5076	-14.3084	68.799	-9.67767	-14.8202	71.2282	-19.2078	16.3372	104.032	4.84806	-16.4604	85.3419	-19.5439	-8.21385	84.9119	-16.8177	23.6252	124.064	32.6746	24.4977	136.264	22.1885	55.5817	107.176	39.6168	56.549	
295	2.45833	79.5813	11.1565	69.986	58.2195	7.06562	43.7818	51.1498	7.98031	16.4505	61.4833	7.57502	-9.77477	61.6057	41.7316	2.29046	47.1461	40.6606	-22.8868	37.312	39.4618	-45.3153	75.2587	38.3048	-11.2976	61.3684	35.8496	-33.234	46.7277	34.8169	-58.5238	86.3933	12.1062	-17.9074	74.1897	-16.0079	-15.782	82.002	-26.1481	15.6575	101.49	-1.45336	-17.3692	89.745	-24.4745	-5.61376	92.4428	-20.9479	22.4654	123.032	28.7528	24.1628	136.475	23.432	49.2597	102.374	37.9382	52.966	
296	2.46667	82.7882	8.39005	64.0552	62.7418	-0.100625	40.0481	52.8386	-0.284707	9.93202	65.1891	-0.856577	-13.7896	62.1829	35.0311	-1.11162	51.3793	33.2032	-23.3745	40.1479	31.3291	-49.164	77.6565	32.719	-18.0347	62.5406	29.6563	-37.8217	49.7653	28.5025	-63.7254	88.0036	5.98839	-21.188	77.2916	-22.7379	-15.0016	85.835	-29.4905	13.1226	106.076	-5.45751	-18.8116	99.3587	-30.3188	-7.97301	103.111	-24.4825	27.4854	124.825	26.8785	22.7482	139.619	22.6568	46.0555	103.138	35.9585	51.6348	
297	2.475	86.2475	4.71148	63.1179	64.0342	-5.1983	36.7617	57.8235	-9.02035	9.55353	71.0587	-10.2249	-16.6197	66.7968	29.8251	-9.27131	55.1297	26.4367	-26.4263	43.9198	24.7932	-54.739	81.2435	27.8214	-23.3203	64.7287	24.5497	-43.9209	58.9736	19.9606	-67.8904	96.6435	2.47238	-23.0041	85.211	-27.7719	-20.2648	94.4926	-35.7949	12.45	114.856	-8.12093	-18.2563	105.444	-34.8607	-7.67613	108.449	-29.6803	22.4562	129.427	26.1598	19.1248	137.488	24.0773	47.6818	104.84	34.253	48.6473	
298	2.48333	87.7069	3.08043	61.6478	69.5618	-10.0667	34.8851	67.8848	-15.3408	6.92218	77.7699	-17.1351	-17.7827	72.6068	23.7344	-11.4463	56.9834	21.5473	-35.1744	52.6097	17.1565	-57.453	87.2514	21.992	-24.3033	73.1446	17.9216	-47.1352	61.9271	13.6337	-71.6372	102.638	-3.89304	-25.6321	96.2759	-31.7387	-24.4822	99.805	-39.0902	11.6709	122.862	-14.5855	-21.5612	110.721	-36.8311	-9.95719	111.842	-32.1373	20.8561	132.786	23.6928	14.7894	143.696	23.4628	48.121	110.308	28.8863	42.0096	
299	2.49167	92.9538	0.449327	57.0053	72.567	-14.5184	28.8776	72.7027	-22.3465	5.33508	88.3273	-24.4665	-20.6023	77.7751	18.8125	-14.1254	67.7032	15.1776	-36.7549	62.1161	10.7945	-62.6297	92.6658	16.692	-31.0425	84.9618	11.0088	-50.8139	74.4941	6.33609	-75.4896	109.756	-8.6469	-29.0241	103.392	-38.3389	-24.2572	106.97	-43.2565	8.84614	131.293	-14.6405	-19.9057	118.067	-41.3139	-8.69919	119.003	-32.8946	22.6552	136.838	23.6696	16.3569	148.19	23.1879	41.9425	110.587	28.2836	40.5788	
300	2.5	97.8449	-0.89506	53.7609	78.4304	-20.6918	28.7862	78.9946	-27.678	-2.04012	94.8953	-29.3448	-19.5649	83.7424	14.8038	-20.7066	75.0553	9.08516	-42.3736	69.1845	3.82182	-68.7645	99.2216	13.1505	-32.3576	89.7519	6.75123	-51.5905	85.7483	-1.00312	-81.4181	119.534	-10.492	-30.1282	112.502	-41.3798	-27.7232	112.024	-46.4625	4.58119	137.108	-20.4359	-24.1132	128.418	-46.1408	-8.07401	125.632	-38.3546	19.8579	138.203	22.5108	11.2867	148.276	24.8411	40.8572	112.945	27.6569	36.8883	
301	2.50833	97.139	-4.39273	53.0951	87.7531	-24.4682	24.8279	86.4684	-34.0348	-2.90353	107.04	-32.3917	-24.1758	89.6236	10.9441	-23.3606	82.4165	3.74803	-46.7332	80.886	-2.09703	-73.1804	107.83	9.29807	-37.4713	98.8772	2.40127	-58.0911	94.4729	-5.46349	-86.2826	125.362	-15.571	-31.6633	120.353	-43.2679	-28.3998	118.686	-47.0512	6.99743	141.684	-20.8298	-22.9862	137.786	-45.5382	-11.7834	133.014	-37.0813	23.6545	145.062	20.2336	12.7124	153.558	25.4226	43.3604	119.255	24.6505	30.6929	
302	2.51667	105.467	-6.44291	47.0816	96.5043	-27.3666	22.0828	97.7221	-36.2983	-5.85968	115.296	-36.542	-23.006	97.0557	7.91971	-24.6967	94.3723	0.0175295	-51.7641	91.424	-6.2986	-77.757	115.941	6.41631	-35.1716	110.592	-1.46569	-61.6282	105.846	-7.34174	-88.6909	137.276	-17.7997	-33.988	133.418	-47.3369	-26.1117	131.576	-48.7143	7.71458	152.161	-21.8192	-23.0666	146.942	-47.8564	-8.58546	141.441	-37.7353	21.2694	147.49	20.7098	10.2087	155.539	24.8041	44.3662	122.364	24.2247	29.3887	
303	2.525	107.331	-8.7857	44.4768	103.823	-31.0166	16.3599	107.447	-41.7704	-11.3941	124.706	-42.0987	-28.3787	107.851	5.45742	-28.7226	101.064	-1.82639	-54.8753	102.899	-7.06909	-77.215	126.326	4.38445	-41.8885	117.335	-4.08731	-65.325	117.145	-11.3107	-89.3433	146.775	-15.603	-30.984	145.646	-49.2936	-25.6201	139.527	-48.6419	8.8798	164.042	-24.5621	-23.5271	157.528	-46.8075	-7.91182	144.465	-36.2154	22.5326	152.072	19.5803	8.04487	157.345	24.8945	40.8585	123.365	22.5999	28.737	
304	2.53333	114.433	-11.1313	39.9377	112.835	-34.277	14.1151	121.166	-42.81	-11.3587	139.002	-43.3138	-27.264	114.041	1.43704	-36.2817	113.973	-5.15399	-56.5698	119.625	-12.1615	-84.0303	133.821	1.81435	-43.2354	133.25	-7.63714	-66.0754	130.441	-16.5282	-95.4968	155.244	-21.0445	-33.0155	154.771	-51.5857	-22.3753	150.148	-49.0988	8.04021	175.176	-24.3555	-21.1885	168.42	-46.5894	-6.08872	159.795	-36.432	23.8534	159.192	20.0521	7.56019	161.126	26.3546	38.1966	126.508	23.26	26.2868	
305	2.54167	120.01	-13.4685	37.2616	122.171	-38.3802	14.2026	134.601	-44.7617	-14.8128	154.862	-42.6345	-29.6598	126.694	-1.16913	-36.5526	126.419	-8.10712	-59.9164	132.778	-12.9978	-85.1287	145.83	0.696606	-42.114	145.47	-11.138	-69.1858	147.72	-19.4162	-93.9745	168.706	-21.7775	-32.873	168.228	-48.7283	-24.9263	158.861	-47.8182	8.63172	187.724	-20.0947	-16.5428	178.728	-46.2818	0.949955	164.144	-34.5467	21.9736	166.387	21.3673	10.6925	167.113	28.2118	38.4462	131.65	20.0363	23.8114	
306	2.55	125.139	-15.906	32.0893	133.689	-41.1974	8.40859	146.515	-49.1227	-18.3174	166.969	-44.7293	-30.4648	136.541	-2.24997	-43.1486	144.291	-8.76933	-63.0322	153.093	-12.2414	-86.6994	159.367	1.0623	-44.8504	160.481	-10.3692	-70.3807	168.141	-17.6689	-93.6063	181.308	-16.9976	-30.0752	181.735	-46.368	-22.5006	171.701	-44.7564	11.2575	194.522	-18.5807	-15.6358	191.68	-42.2371	-0.832476	171.077	-30.8414	27.1028	170.292	22.9652	11.8986	169.622	28.3922	42.8127	141.083	19.444	19.1625	
307	2.55833	134.148	-16.8659	27.6748	148.649	-38.5644	5.30896	161.695	-45.8369	-17.6631	185.601	-40.4856	-36.6009	155.783	0.869791	-44.4457	158.467	-6.58861	-69.4937	168.585	-9.51995	-88.2481	171.517	4.38356	-46.7238	178.506	-5.16313	-70.1954	186.417	-11.0534	-92.8653	197.194	-12.0012	-29.5267	194.688	-41.4251	-22.4632	179.917	-41.5406	9.28348	209.352	-13.2193	-10.8835	199.826	-38.0848	3.54025	177.569	-28.6064	23.8455	179.668	24.9375	11.0276	168.382	28.499	38.2473	144.107	20.7218	16.7373	
308	2.56667	143.095	-14.8657	22.3671	157.805	-37.9291	3.48695	175.612	-43.8286	-19.2372	199.302	-35.5908	-33.3871	167.352	5.78989	-44.0768	179.628	1.02018	-69.1526	189.497	-0.228626	-85.9876	188.334	10.6933	-46.5645	196.453	4.07691	-64.9743	207.832	-1.70905	-91.4694	209.54	-6.57314	-28.898	212.231	-34.6382	-20.5106	191.236	-39.3332	4.2709	214.998	-3.68252	-8.32821	211.952	-32.1007	3.26867	185.046	-24.8628	24.8998	184.758	29.0332	11.4299	173.378	32.9421	38.4027	149.89	20.5718	14.117	
309	2.575	149.14	-13.9166	19.1008	168.283	-35.031	-5.70177	188.75	-39.6159	-26.6456	209.973	-30.0901	-32.0628	174.854	8.84137	-48.8783	188.734	7.35451	-67.2815	203.858	6.29957	-87.6135	196.777	17.4656	-42.3165	210.637	11.5096	-67.6094	223.347	8.25593	-89.1804	217.64	-2.42572	-28.7461	222.369	-30.4638	-20.8908	199.862	-35.3187	6.60677	226.557	-1.6635	-6.56522	221.561	-27.8385	1.80482	194.644	-25.619	22.3533	187.121	32.895	14.1876	177.765	35.2869	41.7589	157.504	24.7989	11.4754	
310	2.58333	152.799	-14.5373	14.0432	173.794	-31.4291	-4.57687	192.015	-38.5554	-26.2361	216.465	-25.9683	-32.978	182.614	13.2717	-49.328	194.784	12.1887	-66.6878	211.512	13.2301	-84.7226	202.89	21.1938	-43.0045	217.047	18.4727	-63.3451	228.843	16.3241	-89.5997	224.516	6.57893	-24.8799	225.186	-26.7246	-23.0137	204.061	-32.9594	1.45705	233.461	2.06278	-7.04909	222.631	-24.9375	0.369236	197.745	-21.6081	20.6884	191.662	35.5585	11.656	178.82	34.145	40.6228	161.215	24.2602	10.5588	
